<?xml version="1.0" encoding="UTF-8" standalone="no"?>
<!DOCTYPE svg PUBLIC "-//W3C//DTD SVG 1.1//EN"
 "http://www.w3.org/Graphics/SVG/1.1/DTD/svg11.dtd">
<!-- Generated by graphviz version 2.34.0 (20130907.0111)
 -->
<!-- Title: graphname Pages: 1 -->
<svg width="1627pt" height="752pt"
 viewBox="0.00 0.00 1627.00 751.60" xmlns="http://www.w3.org/2000/svg" xmlns:xlink="http://www.w3.org/1999/xlink">
<g id="graph0" class="graph" transform="scale(1 1) rotate(0) translate(4 747.597)">
<title>graphname</title>
<polygon fill="white" stroke="white" points="-4,4 -4,-747.597 1623,-747.597 1623,4 -4,4"/>
<!-- PC -->
<g id="node1" class="node"><title>PC</title>
<polygon fill="none" stroke="black" points="0,-75 0,-183 112,-183 112,-75 0,-75"/>
<text text-anchor="middle" x="56" y="-152.3" font-family="Times New Roman,serif" font-size="14.00">PC</text>
<polyline fill="none" stroke="black" points="0,-129 112,-129 "/>
<text text-anchor="middle" x="26" y="-98.3" font-family="Times New Roman,serif" font-size="14.00">PC_in</text>
<polyline fill="none" stroke="black" points="52,-75 52,-129 "/>
<text text-anchor="middle" x="82" y="-98.3" font-family="Times New Roman,serif" font-size="14.00">PC_out</text>
</g>
<!-- Add1 -->
<g id="node2" class="node"><title>Add1</title>
<polygon fill="none" stroke="black" points="475,-17 475,-63 529,-63 529,-17 475,-17"/>
<text text-anchor="middle" x="488.5" y="-47.8" font-family="Times New Roman,serif" font-size="14.00">in</text>
<polyline fill="none" stroke="black" points="475,-40 502,-40 "/>
<text text-anchor="middle" x="488.5" y="-24.8" font-family="Times New Roman,serif" font-size="14.00">in</text>
<polyline fill="none" stroke="black" points="502,-17 502,-63 "/>
<text text-anchor="middle" x="515.5" y="-36.3" font-family="Times New Roman,serif" font-size="14.00">+</text>
<text text-anchor="middle" x="459" y="-5.3" font-family="Times New Roman,serif" font-size="14.00">adder</text>
</g>
<!-- PC&#45;&gt;Add1 -->
<g id="edge2" class="edge"><title>PC:out&#45;&gt;Add1:in1</title>
<path fill="none" stroke="black" d="M112,-102C122.135,-102 120.598,-91.7842 130,-88 269.403,-31.8908 318.087,-51.0785 463.8,-51.9687"/>
<polygon fill="black" stroke="black" points="463.989,-55.4692 474,-52 464.011,-48.4693 463.989,-55.4692"/>
</g>
<!-- Instruction Memory -->
<g id="node11" class="node"><title>Instruction Memory</title>
<polygon fill="none" stroke="black" points="150,-388 150,-434 352,-434 352,-388 150,-388"/>
<text text-anchor="middle" x="251" y="-418.8" font-family="Times New Roman,serif" font-size="14.00">Instruction Memory</text>
<polyline fill="none" stroke="black" points="150,-411 352,-411 "/>
<text text-anchor="middle" x="194" y="-395.8" font-family="Times New Roman,serif" font-size="14.00">read address</text>
<polyline fill="none" stroke="black" points="238,-388 238,-411 "/>
<text text-anchor="middle" x="295" y="-395.8" font-family="Times New Roman,serif" font-size="14.00">Instruction [31&#45;0]</text>
</g>
<!-- PC&#45;&gt;Instruction Memory -->
<g id="edge1" class="edge"><title>PC:out&#45;&gt;Instruction Memory:read address</title>
<path fill="none" stroke="black" d="M112,-102C142.28,-102 121.36,-348.03 142.44,-392.239"/>
<polygon fill="black" stroke="black" points="140.213,-394.942 150,-399 144.879,-389.725 140.213,-394.942"/>
</g>
<!-- Add2 -->
<g id="node4" class="node"><title>Add2</title>
<polygon fill="none" stroke="black" points="710,-62 710,-108 764,-108 764,-62 710,-62"/>
<text text-anchor="middle" x="723.5" y="-92.8" font-family="Times New Roman,serif" font-size="14.00">in</text>
<polyline fill="none" stroke="black" points="710,-85 737,-85 "/>
<text text-anchor="middle" x="723.5" y="-69.8" font-family="Times New Roman,serif" font-size="14.00">in</text>
<polyline fill="none" stroke="black" points="737,-62 737,-108 "/>
<text text-anchor="middle" x="750.5" y="-81.3" font-family="Times New Roman,serif" font-size="14.00">+</text>
<text text-anchor="middle" x="694" y="-50.3" font-family="Times New Roman,serif" font-size="14.00">adder</text>
</g>
<!-- Add1&#45;&gt;Add2 -->
<g id="edge5" class="edge"><title>Add1:out&#45;&gt;Add2:in1</title>
<path fill="none" stroke="black" d="M530,-40C597.842,-40 624.198,-18.4836 682,-54 697.472,-63.5065 690.915,-85.5569 699.521,-93.8077"/>
<polygon fill="black" stroke="black" points="698.406,-97.1252 709,-97 700.64,-90.4913 698.406,-97.1252"/>
</g>
<!-- Concat -->
<g id="node5" class="node"><title>Concat</title>
<ellipse fill="none" stroke="black" cx="737" cy="-206" rx="37.0935" ry="37.0935"/>
<text text-anchor="middle" x="737" y="-202.3" font-family="Times New Roman,serif" font-size="14.00">Concat</text>
</g>
<!-- Add1&#45;&gt;Concat -->
<g id="edge4" class="edge"><title>Add1:out&#45;&gt;Concat</title>
<path fill="none" stroke="black" d="M530,-40C571.527,-40 657.169,-122.823 703.885,-171.465"/>
<polygon fill="black" stroke="black" points="701.601,-174.14 711.036,-178.96 706.666,-169.308 701.601,-174.14"/>
<text text-anchor="middle" x="651" y="-151.8" font-family="Times New Roman,serif" font-size="14.00">PC[31&#45;26]</text>
</g>
<!-- Branch MUX -->
<g id="node15" class="node"><title>Branch MUX</title>
<path fill="none" stroke="black" d="M1444,-39.5C1444,-39.5 1490,-39.5 1490,-39.5 1496,-39.5 1502,-45.5 1502,-51.5 1502,-51.5 1502,-96.5 1502,-96.5 1502,-102.5 1496,-108.5 1490,-108.5 1490,-108.5 1444,-108.5 1444,-108.5 1438,-108.5 1432,-102.5 1432,-96.5 1432,-96.5 1432,-51.5 1432,-51.5 1432,-45.5 1438,-39.5 1444,-39.5"/>
<text text-anchor="middle" x="1467" y="-93.3" font-family="Times New Roman,serif" font-size="14.00">1</text>
<polyline fill="none" stroke="black" points="1432,-85.5 1502,-85.5 "/>
<text text-anchor="middle" x="1449.5" y="-70.3" font-family="Times New Roman,serif" font-size="14.00">ctrl</text>
<polyline fill="none" stroke="black" points="1467,-62.5 1467,-85.5 "/>
<text text-anchor="middle" x="1484.5" y="-70.3" font-family="Times New Roman,serif" font-size="14.00">out</text>
<polyline fill="none" stroke="black" points="1432,-62.5 1502,-62.5 "/>
<text text-anchor="middle" x="1467" y="-47.3" font-family="Times New Roman,serif" font-size="14.00">0</text>
<text text-anchor="middle" x="1393" y="-27.8" font-family="Times New Roman,serif" font-size="14.00">MUX_branch</text>
</g>
<!-- Add1&#45;&gt;Branch MUX -->
<g id="edge6" class="edge"><title>Add1:out&#45;&gt;Branch MUX:0</title>
<path fill="none" stroke="black" d="M530,-40C576.114,-40 689.886,-15 736,-15 736,-15 736,-15 1299,-15 1356.65,-15 1369.35,-46.9048 1421.74,-50.6437"/>
<polygon fill="black" stroke="black" points="1421.88,-54.1508 1432,-51 1422.13,-47.155 1421.88,-54.1508"/>
</g>
<!-- constant_1 -->
<g id="node3" class="node"><title>constant_1</title>
<polygon fill="none" stroke="black" points="278,-36 224,-36 224,-0 278,-0 278,-36"/>
<text text-anchor="middle" x="251" y="-14.3" font-family="Times New Roman,serif" font-size="14.00">1</text>
</g>
<!-- constant_1&#45;&gt;Add1 -->
<g id="edge3" class="edge"><title>constant_1&#45;&gt;Add1:in2</title>
<path fill="none" stroke="black" d="M278.297,-19.9518C317.891,-22.7256 395.481,-27.5232 463.967,-27.9669"/>
<polygon fill="black" stroke="black" points="463.988,-31.4669 474,-28 464.012,-24.4669 463.988,-31.4669"/>
</g>
<!-- Add2&#45;&gt;Branch MUX -->
<g id="edge7" class="edge"><title>Add2:out&#45;&gt;Branch MUX:1</title>
<path fill="none" stroke="black" d="M765,-85C853.072,-85 874.928,-93 963,-93 963,-93 963,-93 1299,-93 1354.56,-93 1370.92,-96.5303 1421.73,-96.9578"/>
<polygon fill="black" stroke="black" points="1421.99,-100.459 1432,-97 1422.01,-93.4588 1421.99,-100.459"/>
</g>
<!-- Jump MUX -->
<g id="node16" class="node"><title>Jump MUX</title>
<path fill="none" stroke="black" d="M1552,-125.5C1552,-125.5 1598,-125.5 1598,-125.5 1604,-125.5 1610,-131.5 1610,-137.5 1610,-137.5 1610,-182.5 1610,-182.5 1610,-188.5 1604,-194.5 1598,-194.5 1598,-194.5 1552,-194.5 1552,-194.5 1546,-194.5 1540,-188.5 1540,-182.5 1540,-182.5 1540,-137.5 1540,-137.5 1540,-131.5 1546,-125.5 1552,-125.5"/>
<text text-anchor="middle" x="1575" y="-179.3" font-family="Times New Roman,serif" font-size="14.00">1</text>
<polyline fill="none" stroke="black" points="1540,-171.5 1610,-171.5 "/>
<text text-anchor="middle" x="1557.5" y="-156.3" font-family="Times New Roman,serif" font-size="14.00">ctrl</text>
<polyline fill="none" stroke="black" points="1575,-148.5 1575,-171.5 "/>
<text text-anchor="middle" x="1592.5" y="-156.3" font-family="Times New Roman,serif" font-size="14.00">out</text>
<polyline fill="none" stroke="black" points="1540,-148.5 1610,-148.5 "/>
<text text-anchor="middle" x="1575" y="-133.3" font-family="Times New Roman,serif" font-size="14.00">0</text>
<text text-anchor="middle" x="1509.5" y="-113.8" font-family="Times New Roman,serif" font-size="14.00">MUX_jmp</text>
</g>
<!-- Concat&#45;&gt;Jump MUX -->
<g id="edge40" class="edge"><title>Concat&#45;&gt;Jump MUX:1</title>
<path fill="none" stroke="black" d="M774.21,-209.122C818.644,-212.677 896.304,-218 963,-218 963,-218 963,-218 1468,-218 1499.83,-218 1503.86,-189.993 1529.82,-184.086"/>
<polygon fill="black" stroke="black" points="1530.43,-187.541 1540,-183 1529.69,-180.58 1530.43,-187.541"/>
</g>
<!-- Sign Extend -->
<g id="node6" class="node"><title>Sign Extend</title>
<ellipse fill="none" stroke="black" cx="502" cy="-170" rx="40.1111" ry="40.1111"/>
<text text-anchor="middle" x="502" y="-173.8" font-family="Times New Roman,serif" font-size="14.00">sign</text>
<text text-anchor="middle" x="502" y="-158.8" font-family="Times New Roman,serif" font-size="14.00"> extend</text>
</g>
<!-- Sign Extend&#45;&gt;Add2 -->
<g id="edge22" class="edge"><title>Sign Extend&#45;&gt;Add2:in2</title>
<path fill="none" stroke="black" d="M528.831,-139.796C550.516,-116.907 583.707,-87.2144 620,-74 650.056,-63.0566 663.832,-69.1569 688.918,-71.8931"/>
<polygon fill="black" stroke="black" points="709,-73 709,-73 709,-73 704.008,-72.7248 709.248,-68.5068 699.015,-72.4496 709,-73"/>
<polygon fill="black" stroke="black" points="699.015,-72.4496 688.783,-76.3924 694.023,-72.1744 689.03,-71.8992 689.03,-71.8992 689.03,-71.8992 699.015,-72.4496"/>
<text text-anchor="middle" x="651" y="-77.8" font-family="Times New Roman,serif" font-size="14.00">32</text>
</g>
<!-- Control Unit -->
<g id="node7" class="node"><title>Control Unit</title>
<polygon fill="none" stroke="black" points="402,-330.5 402,-491.5 602,-491.5 602,-330.5 402,-330.5"/>
<text text-anchor="middle" x="502" y="-476.3" font-family="Times New Roman,serif" font-size="14.00">Control Unit</text>
<polyline fill="none" stroke="black" points="402,-468.5 602,-468.5 "/>
<text text-anchor="middle" x="440.5" y="-395.8" font-family="Times New Roman,serif" font-size="14.00">Instruction</text>
<polyline fill="none" stroke="black" points="479,-330.5 479,-468.5 "/>
<text text-anchor="middle" x="540.5" y="-453.3" font-family="Times New Roman,serif" font-size="14.00">ALU source</text>
<polyline fill="none" stroke="black" points="479,-445.5 602,-445.5 "/>
<text text-anchor="middle" x="540.5" y="-430.3" font-family="Times New Roman,serif" font-size="14.00">register write</text>
<polyline fill="none" stroke="black" points="479,-422.5 602,-422.5 "/>
<text text-anchor="middle" x="540.5" y="-407.3" font-family="Times New Roman,serif" font-size="14.00">register destination</text>
<polyline fill="none" stroke="black" points="479,-399.5 602,-399.5 "/>
<text text-anchor="middle" x="540.5" y="-384.3" font-family="Times New Roman,serif" font-size="14.00">Memory to register</text>
<polyline fill="none" stroke="black" points="479,-376.5 602,-376.5 "/>
<text text-anchor="middle" x="540.5" y="-361.3" font-family="Times New Roman,serif" font-size="14.00">Memory write</text>
<polyline fill="none" stroke="black" points="479,-353.5 602,-353.5 "/>
<text text-anchor="middle" x="540.5" y="-338.3" font-family="Times New Roman,serif" font-size="14.00">jump</text>
</g>
<!-- Registers -->
<g id="node10" class="node"><title>Registers</title>
<polygon fill="none" stroke="black" points="872,-467 872,-605 1056,-605 1056,-467 872,-467"/>
<text text-anchor="middle" x="964" y="-589.8" font-family="Times New Roman,serif" font-size="14.00">Registers</text>
<polyline fill="none" stroke="black" points="872,-582 1056,-582 "/>
<text text-anchor="middle" x="922.5" y="-566.8" font-family="Times New Roman,serif" font-size="14.00">Read register 1</text>
<polyline fill="none" stroke="black" points="872,-559 973,-559 "/>
<text text-anchor="middle" x="922.5" y="-543.8" font-family="Times New Roman,serif" font-size="14.00">Read register 2</text>
<polyline fill="none" stroke="black" points="872,-536 973,-536 "/>
<text text-anchor="middle" x="922.5" y="-520.8" font-family="Times New Roman,serif" font-size="14.00">Write register</text>
<polyline fill="none" stroke="black" points="872,-513 973,-513 "/>
<text text-anchor="middle" x="922.5" y="-497.8" font-family="Times New Roman,serif" font-size="14.00">Write data</text>
<polyline fill="none" stroke="black" points="872,-490 973,-490 "/>
<text text-anchor="middle" x="922.5" y="-474.8" font-family="Times New Roman,serif" font-size="14.00">register write</text>
<polyline fill="none" stroke="black" points="973,-467 973,-582 "/>
<text text-anchor="middle" x="1014.5" y="-549.8" font-family="Times New Roman,serif" font-size="14.00">Read data 1</text>
<polyline fill="none" stroke="black" points="973,-525 1056,-525 "/>
<text text-anchor="middle" x="1014.5" y="-492.3" font-family="Times New Roman,serif" font-size="14.00">Read data 2</text>
</g>
<!-- Control Unit&#45;&gt;Registers -->
<g id="edge35" class="edge"><title>Control Unit:regwrite&#45;&gt;Registers:regwrite</title>
<path fill="none" stroke="black" d="M602,-434C614.224,-434 688.13,-481.079 700,-484 766.463,-500.358 786.728,-497.62 854,-485 857.955,-484.258 860.271,-482.674 862.5,-481.2"/>
<polygon fill="black" stroke="black" points="863.64,-484.509 872,-478 861.406,-477.875 863.64,-484.509"/>
</g>
<!-- Data Memory -->
<g id="node12" class="node"><title>Data Memory</title>
<polygon fill="none" stroke="black" points="1215,-372 1215,-464 1381,-464 1381,-372 1215,-372"/>
<text text-anchor="middle" x="1298" y="-448.8" font-family="Times New Roman,serif" font-size="14.00">Data Memory</text>
<polyline fill="none" stroke="black" points="1215,-441 1381,-441 "/>
<text text-anchor="middle" x="1264" y="-425.8" font-family="Times New Roman,serif" font-size="14.00">address</text>
<polyline fill="none" stroke="black" points="1215,-418 1313,-418 "/>
<text text-anchor="middle" x="1264" y="-402.8" font-family="Times New Roman,serif" font-size="14.00">write data</text>
<polyline fill="none" stroke="black" points="1215,-395 1313,-395 "/>
<text text-anchor="middle" x="1264" y="-379.8" font-family="Times New Roman,serif" font-size="14.00">Memory Write</text>
<polyline fill="none" stroke="black" points="1313,-372 1313,-441 "/>
<text text-anchor="middle" x="1347" y="-402.8" font-family="Times New Roman,serif" font-size="14.00">read data</text>
</g>
<!-- Control Unit&#45;&gt;Data Memory -->
<g id="edge38" class="edge"><title>Control Unit:memw&#45;&gt;Data Memory:memwrite</title>
<path fill="none" stroke="black" d="M602,-365C618.318,-365 605.914,-341.238 620,-333 709.774,-280.496 750.247,-325.829 854,-333 1011.69,-343.898 1050.8,-381.343 1203.76,-382.947"/>
<polygon fill="black" stroke="black" points="1203.98,-386.448 1214,-383 1204.02,-379.448 1203.98,-386.448"/>
</g>
<!-- Register Destination MUX -->
<g id="node13" class="node"><title>Register Destination MUX</title>
<path fill="none" stroke="black" d="M714,-405.5C714,-405.5 760,-405.5 760,-405.5 766,-405.5 772,-411.5 772,-417.5 772,-417.5 772,-462.5 772,-462.5 772,-468.5 766,-474.5 760,-474.5 760,-474.5 714,-474.5 714,-474.5 708,-474.5 702,-468.5 702,-462.5 702,-462.5 702,-417.5 702,-417.5 702,-411.5 708,-405.5 714,-405.5"/>
<text text-anchor="middle" x="737" y="-459.3" font-family="Times New Roman,serif" font-size="14.00">1</text>
<polyline fill="none" stroke="black" points="702,-451.5 772,-451.5 "/>
<text text-anchor="middle" x="719.5" y="-436.3" font-family="Times New Roman,serif" font-size="14.00">ctrl</text>
<polyline fill="none" stroke="black" points="737,-428.5 737,-451.5 "/>
<text text-anchor="middle" x="754.5" y="-436.3" font-family="Times New Roman,serif" font-size="14.00">out</text>
<polyline fill="none" stroke="black" points="702,-428.5 772,-428.5 "/>
<text text-anchor="middle" x="737" y="-413.3" font-family="Times New Roman,serif" font-size="14.00">0</text>
<text text-anchor="middle" x="658" y="-393.8" font-family="Times New Roman,serif" font-size="14.00">MUX_reg_dest</text>
</g>
<!-- Control Unit&#45;&gt;Register Destination MUX -->
<g id="edge36" class="edge"><title>Control Unit:regdest&#45;&gt;Register Destination MUX:control</title>
<path fill="none" stroke="black" d="M602,-411C644.267,-411 653.775,-435.646 690.923,-439.497"/>
<polygon fill="black" stroke="black" points="690.838,-442.997 701,-440 691.187,-436.005 690.838,-442.997"/>
</g>
<!-- ALU Source MUX -->
<g id="node14" class="node"><title>ALU Source MUX</title>
<path fill="none" stroke="black" d="M1106,-608.5C1106,-608.5 1152,-608.5 1152,-608.5 1158,-608.5 1164,-614.5 1164,-620.5 1164,-620.5 1164,-665.5 1164,-665.5 1164,-671.5 1158,-677.5 1152,-677.5 1152,-677.5 1106,-677.5 1106,-677.5 1100,-677.5 1094,-671.5 1094,-665.5 1094,-665.5 1094,-620.5 1094,-620.5 1094,-614.5 1100,-608.5 1106,-608.5"/>
<text text-anchor="middle" x="1129" y="-662.3" font-family="Times New Roman,serif" font-size="14.00">1</text>
<polyline fill="none" stroke="black" points="1094,-654.5 1164,-654.5 "/>
<text text-anchor="middle" x="1111.5" y="-639.3" font-family="Times New Roman,serif" font-size="14.00">ctrl</text>
<polyline fill="none" stroke="black" points="1129,-631.5 1129,-654.5 "/>
<text text-anchor="middle" x="1146.5" y="-639.3" font-family="Times New Roman,serif" font-size="14.00">out</text>
<polyline fill="none" stroke="black" points="1094,-631.5 1164,-631.5 "/>
<text text-anchor="middle" x="1129" y="-616.3" font-family="Times New Roman,serif" font-size="14.00">0</text>
<text text-anchor="middle" x="1124" y="-596.8" font-family="Times New Roman,serif" font-size="14.00">MUX_alu_src</text>
</g>
<!-- Control Unit&#45;&gt;ALU Source MUX -->
<g id="edge34" class="edge"><title>Control Unit:alusource&#45;&gt;ALU Source MUX:control</title>
<path fill="none" stroke="black" d="M602,-457C612.704,-457 611.278,-466.795 620,-473 724.573,-547.401 750.176,-573.627 872,-614 963.133,-644.201 992.441,-643.12 1083.76,-643.007"/>
<polygon fill="black" stroke="black" points="1084,-646.507 1094,-643 1084,-639.507 1084,-646.507"/>
</g>
<!-- Control Unit&#45;&gt;Jump MUX -->
<g id="edge37" class="edge"><title>Control Unit:jump&#45;&gt;Jump MUX:control</title>
<path fill="none" stroke="black" d="M602,-342C619.889,-342 605.428,-316.376 620,-306 722.968,-232.676 1059.31,-252.764 1184,-232 1339.81,-206.054 1377,-161.946 1529.77,-160.062"/>
<polygon fill="black" stroke="black" points="1530.02,-163.561 1540,-160 1529.98,-156.561 1530.02,-163.561"/>
</g>
<!-- Memory to Register MUX -->
<g id="node17" class="node"><title>Memory to Register MUX</title>
<path fill="none" stroke="black" d="M1444,-378.5C1444,-378.5 1490,-378.5 1490,-378.5 1496,-378.5 1502,-384.5 1502,-390.5 1502,-390.5 1502,-435.5 1502,-435.5 1502,-441.5 1496,-447.5 1490,-447.5 1490,-447.5 1444,-447.5 1444,-447.5 1438,-447.5 1432,-441.5 1432,-435.5 1432,-435.5 1432,-390.5 1432,-390.5 1432,-384.5 1438,-378.5 1444,-378.5"/>
<text text-anchor="middle" x="1467" y="-432.3" font-family="Times New Roman,serif" font-size="14.00">1</text>
<polyline fill="none" stroke="black" points="1432,-424.5 1502,-424.5 "/>
<text text-anchor="middle" x="1449.5" y="-409.3" font-family="Times New Roman,serif" font-size="14.00">ctrl</text>
<polyline fill="none" stroke="black" points="1467,-401.5 1467,-424.5 "/>
<text text-anchor="middle" x="1484.5" y="-409.3" font-family="Times New Roman,serif" font-size="14.00">out</text>
<polyline fill="none" stroke="black" points="1432,-401.5 1502,-401.5 "/>
<text text-anchor="middle" x="1467" y="-386.3" font-family="Times New Roman,serif" font-size="14.00">0</text>
<text text-anchor="middle" x="1447" y="-366.8" font-family="Times New Roman,serif" font-size="14.00">MUX_mem_to_reg</text>
</g>
<!-- Control Unit&#45;&gt;Memory to Register MUX -->
<g id="edge39" class="edge"><title>Control Unit:memtoreg&#45;&gt;Memory to Register MUX:control</title>
<path fill="none" stroke="black" d="M602,-388C778.365,-388 1243.98,-244.28 1394,-337 1407.18,-345.143 1411.6,-391.068 1423.19,-407.309"/>
<polygon fill="black" stroke="black" points="1421.7,-410.516 1432,-413 1425.5,-404.635 1421.7,-410.516"/>
</g>
<!-- Branch Controller -->
<g id="node8" class="node"><title>Branch Controller</title>
<polygon fill="none" stroke="black" points="1202.5,-560 1202.5,-652 1393.5,-652 1393.5,-560 1202.5,-560"/>
<text text-anchor="middle" x="1298" y="-636.8" font-family="Times New Roman,serif" font-size="14.00">Branch Controller</text>
<polyline fill="none" stroke="black" points="1202.5,-629 1393.5,-629 "/>
<text text-anchor="middle" x="1233.5" y="-613.8" font-family="Times New Roman,serif" font-size="14.00">opcode</text>
<polyline fill="none" stroke="black" points="1202.5,-606 1264.5,-606 "/>
<text text-anchor="middle" x="1233.5" y="-590.8" font-family="Times New Roman,serif" font-size="14.00">negative</text>
<polyline fill="none" stroke="black" points="1202.5,-583 1264.5,-583 "/>
<text text-anchor="middle" x="1233.5" y="-567.8" font-family="Times New Roman,serif" font-size="14.00">zero</text>
<polyline fill="none" stroke="black" points="1264.5,-560 1264.5,-629 "/>
<text text-anchor="middle" x="1329" y="-613.8" font-family="Times New Roman,serif" font-size="14.00">branch</text>
<polyline fill="none" stroke="black" points="1264.5,-606 1393.5,-606 "/>
<text text-anchor="middle" x="1329" y="-590.8" font-family="Times New Roman,serif" font-size="14.00">zero override enable</text>
<polyline fill="none" stroke="black" points="1264.5,-583 1393.5,-583 "/>
<text text-anchor="middle" x="1329" y="-567.8" font-family="Times New Roman,serif" font-size="14.00">value</text>
</g>
<!-- Branch Controller&#45;&gt;Branch MUX -->
<g id="edge33" class="edge"><title>Branch Controller:branch&#45;&gt;Branch MUX:control</title>
<path fill="none" stroke="black" d="M1394,-618C1422.05,-618 1404.77,-151.753 1426.09,-82.5449"/>
<polygon fill="black" stroke="black" points="1429.19,-84.2144 1432,-74 1423.43,-80.2303 1429.19,-84.2144"/>
</g>
<!-- Zero Override MUX -->
<g id="node18" class="node"><title>Zero Override MUX</title>
<path fill="none" stroke="black" d="M1444,-658.5C1444,-658.5 1490,-658.5 1490,-658.5 1496,-658.5 1502,-664.5 1502,-670.5 1502,-670.5 1502,-715.5 1502,-715.5 1502,-721.5 1496,-727.5 1490,-727.5 1490,-727.5 1444,-727.5 1444,-727.5 1438,-727.5 1432,-721.5 1432,-715.5 1432,-715.5 1432,-670.5 1432,-670.5 1432,-664.5 1438,-658.5 1444,-658.5"/>
<text text-anchor="middle" x="1467" y="-712.3" font-family="Times New Roman,serif" font-size="14.00">1</text>
<polyline fill="none" stroke="black" points="1432,-704.5 1502,-704.5 "/>
<text text-anchor="middle" x="1449.5" y="-689.3" font-family="Times New Roman,serif" font-size="14.00">ctrl</text>
<polyline fill="none" stroke="black" points="1467,-681.5 1467,-704.5 "/>
<text text-anchor="middle" x="1484.5" y="-689.3" font-family="Times New Roman,serif" font-size="14.00">out</text>
<polyline fill="none" stroke="black" points="1432,-681.5 1502,-681.5 "/>
<text text-anchor="middle" x="1467" y="-666.3" font-family="Times New Roman,serif" font-size="14.00">0</text>
<text text-anchor="middle" x="1560.5" y="-646.8" font-family="Times New Roman,serif" font-size="14.00">MUX_zero_override</text>
</g>
<!-- Branch Controller&#45;&gt;Zero Override MUX -->
<g id="edge31" class="edge"><title>Branch Controller:zerooverride&#45;&gt;Zero Override MUX:control</title>
<path fill="none" stroke="black" d="M1394,-594C1421.62,-594 1391.1,-698.936 1412,-717 1412.67,-717.581 1413.2,-717.398 1414,-717 1421.45,-713.273 1421.41,-704.83 1423.59,-699.022"/>
<polygon fill="black" stroke="black" points="1425.91,-701.667 1432,-693 1421.83,-695.976 1425.91,-701.667"/>
</g>
<!-- Branch Controller&#45;&gt;Zero Override MUX -->
<g id="edge32" class="edge"><title>Branch Controller:value&#45;&gt;Zero Override MUX:1</title>
<path fill="none" stroke="black" d="M1394,-571C1423.67,-571 1404.21,-686.016 1423.13,-711.176"/>
<polygon fill="black" stroke="black" points="1421.54,-714.296 1432,-716 1424.89,-708.147 1421.54,-714.296"/>
</g>
<!-- ALU -->
<g id="node9" class="node"><title>ALU</title>
<polygon fill="none" stroke="black" points="1102,-520.5 1102,-589.5 1156,-589.5 1156,-520.5 1102,-520.5"/>
<text text-anchor="middle" x="1129" y="-574.3" font-family="Times New Roman,serif" font-size="14.00">ALU</text>
<polyline fill="none" stroke="black" points="1102,-566.5 1156,-566.5 "/>
<text text-anchor="middle" x="1115.5" y="-551.3" font-family="Times New Roman,serif" font-size="14.00">X</text>
<polyline fill="none" stroke="black" points="1102,-543.5 1129,-543.5 "/>
<text text-anchor="middle" x="1115.5" y="-528.3" font-family="Times New Roman,serif" font-size="14.00">Y</text>
<polyline fill="none" stroke="black" points="1129,-520.5 1129,-566.5 "/>
<text text-anchor="middle" x="1142.5" y="-539.8" font-family="Times New Roman,serif" font-size="14.00">R</text>
</g>
<!-- ALU&#45;&gt;Branch Controller -->
<g id="edge28" class="edge"><title>ALU:r&#45;&gt;Branch Controller:zero</title>
<path fill="none" stroke="black" d="M1157,-543C1176.51,-543 1178.41,-562.202 1191.87,-568.803"/>
<polygon fill="black" stroke="black" points="1191.49,-572.301 1202,-571 1192.97,-565.46 1191.49,-572.301"/>
</g>
<!-- ALU&#45;&gt;Branch Controller -->
<g id="edge29" class="edge"><title>ALU:r&#45;&gt;Branch Controller:negative</title>
<path fill="none" stroke="black" d="M1157,-543C1183.21,-543 1175.07,-581.353 1192.16,-591.54"/>
<polygon fill="black" stroke="black" points="1191.45,-594.97 1202,-594 1193.15,-588.179 1191.45,-594.97"/>
</g>
<!-- ALU&#45;&gt;Data Memory -->
<g id="edge26" class="edge"><title>ALU:r&#45;&gt;Data Memory:address</title>
<path fill="none" stroke="black" d="M1143,-519C1143,-471.957 1160.63,-435.46 1203.77,-430.56"/>
<polygon fill="black" stroke="black" points="1204.21,-434.042 1214,-430 1203.82,-427.052 1204.21,-434.042"/>
</g>
<!-- ALU&#45;&gt;Memory to Register MUX -->
<g id="edge27" class="edge"><title>ALU:r&#45;&gt;Memory to Register MUX:0</title>
<path fill="none" stroke="black" d="M1157,-543C1266.83,-543 1311.02,-544.951 1394,-473 1421.66,-449.017 1397.31,-400.735 1422.1,-391.534"/>
<polygon fill="black" stroke="black" points="1422.65,-394.99 1432,-390 1421.58,-388.072 1422.65,-394.99"/>
</g>
<!-- Registers&#45;&gt;ALU -->
<g id="edge23" class="edge"><title>Registers:readdata1&#45;&gt;ALU:x</title>
<path fill="none" stroke="black" d="M1056,-554C1072.1,-554 1078.47,-554.648 1090.77,-554.9"/>
<polygon fill="black" stroke="black" points="1090.97,-558.402 1101,-555 1091.03,-551.403 1090.97,-558.402"/>
</g>
<!-- Registers&#45;&gt;Data Memory -->
<g id="edge25" class="edge"><title>Registers:readdata2&#45;&gt;Data Memory:wdata</title>
<path fill="none" stroke="black" d="M1015,-466C1015,-376.961 1114.06,-403.823 1203.94,-405.881"/>
<polygon fill="black" stroke="black" points="1203.96,-409.381 1214,-406 1204.04,-402.382 1203.96,-409.381"/>
</g>
<!-- Registers&#45;&gt;ALU Source MUX -->
<g id="edge24" class="edge"><title>Registers:readdata2&#45;&gt;ALU Source MUX:0</title>
<path fill="none" stroke="black" d="M1056,-496C1088.98,-496 1064.06,-536.548 1074,-568 1080.18,-587.553 1072.86,-610.382 1084.22,-617.652"/>
<polygon fill="black" stroke="black" points="1083.46,-621.069 1094,-620 1085.09,-614.262 1083.46,-621.069"/>
</g>
<!-- Instruction Memory&#45;&gt;Concat -->
<g id="edge18" class="edge"><title>Instruction Memory:inst&#45;&gt;Concat</title>
<path fill="none" stroke="black" d="M352,-399C384.985,-399 359.097,-358.131 370,-327 381.307,-294.715 374.701,-277.614 402,-257 424.632,-239.91 603.673,-219.537 689.897,-210.593"/>
<polygon fill="black" stroke="black" points="690.346,-214.065 699.936,-209.56 689.63,-207.102 690.346,-214.065"/>
<text text-anchor="middle" x="502" y="-260.8" font-family="Times New Roman,serif" font-size="14.00">Inst[25&#45;0]</text>
</g>
<!-- Instruction Memory&#45;&gt;Sign Extend -->
<g id="edge20" class="edge"><title>Instruction Memory:inst&#45;&gt;Sign Extend</title>
<path fill="none" stroke="black" d="M352,-399C392.642,-399 345.003,-249.045 370,-217 387.264,-194.868 415.836,-183.144 441.898,-176.939"/>
<polygon fill="black" stroke="black" points="461.551,-173.121 461.551,-173.121 461.551,-173.121 456.643,-174.075 460.693,-168.704 451.735,-175.028 461.551,-173.121"/>
<polygon fill="black" stroke="black" points="451.735,-175.028 442.776,-181.353 446.826,-175.982 441.918,-176.935 441.918,-176.935 441.918,-176.935 451.735,-175.028"/>
<text text-anchor="middle" x="377" y="-220.8" font-family="Times New Roman,serif" font-size="14.00">16</text>
</g>
<!-- Instruction Memory&#45;&gt;Control Unit -->
<g id="edge19" class="edge"><title>Instruction Memory:inst&#45;&gt;Control Unit:inst</title>
<path fill="none" stroke="black" d="M352,-399C370.403,-399 377.376,-399 391.849,-399"/>
<polygon fill="black" stroke="black" points="392,-402.5 402,-399 392,-395.5 392,-402.5"/>
</g>
<!-- Instruction Memory&#45;&gt;Branch Controller -->
<g id="edge21" class="edge"><title>Instruction Memory:inst&#45;&gt;Branch Controller:opcode</title>
<path fill="none" stroke="black" d="M352,-399C374.755,-399 361.266,-581.988 370,-603 398.429,-671.39 426.936,-706 501,-706 501,-706 501,-706 1130,-706 1147.31,-706 1151.8,-699.278 1164,-687 1185.79,-665.078 1171.44,-628.086 1191.86,-619.717"/>
<polygon fill="black" stroke="black" points="1192.73,-623.121 1202,-618 1191.56,-616.22 1192.73,-623.121"/>
<text text-anchor="middle" x="823" y="-709.8" font-family="Times New Roman,serif" font-size="14.00">Inst[31&#45;26]</text>
</g>
<!-- Instruction Memory&#45;&gt;Registers -->
<g id="edge14" class="edge"><title>Instruction Memory:inst&#45;&gt;Registers:readreg2</title>
<path fill="none" stroke="black" d="M352,-399C393.526,-399 339.367,-556.964 370,-585 532.534,-733.755 644.843,-553.615 861.916,-548.127"/>
<polygon fill="black" stroke="black" points="862.045,-551.626 872,-548 861.957,-544.627 862.045,-551.626"/>
<text text-anchor="middle" x="651" y="-617.8" font-family="Times New Roman,serif" font-size="14.00">Inst[25&#45;21]</text>
</g>
<!-- Instruction Memory&#45;&gt;Registers -->
<g id="edge15" class="edge"><title>Instruction Memory:inst&#45;&gt;Registers:readreg1</title>
<path fill="none" stroke="black" d="M352,-399C378.566,-399 361.459,-430.844 370,-456 383.38,-495.407 368.612,-519.157 402,-544 441.834,-573.64 782.393,-571.338 861.615,-571.027"/>
<polygon fill="black" stroke="black" points="862.009,-574.527 872,-571 861.991,-567.527 862.009,-574.527"/>
<text text-anchor="middle" x="651" y="-573.8" font-family="Times New Roman,serif" font-size="14.00">Inst[20&#45;16]</text>
</g>
<!-- Instruction Memory&#45;&gt;Register Destination MUX -->
<g id="edge16" class="edge"><title>Instruction Memory:inst&#45;&gt;Register Destination MUX:0</title>
<path fill="none" stroke="black" d="M352,-399C398.928,-399 361.719,-330.077 402,-306 478.298,-260.394 520.882,-269.654 602,-306 629.217,-318.195 661.012,-398.761 691.246,-414.38"/>
<polygon fill="black" stroke="black" points="690.434,-417.786 701,-417 692.25,-411.025 690.434,-417.786"/>
<text text-anchor="middle" x="502" y="-309.8" font-family="Times New Roman,serif" font-size="14.00">Inst[20&#45;16]</text>
</g>
<!-- Instruction Memory&#45;&gt;Register Destination MUX -->
<g id="edge17" class="edge"><title>Instruction Memory:inst&#45;&gt;Register Destination MUX:1</title>
<path fill="none" stroke="black" d="M352,-399C377.244,-399 380.579,-487.644 402,-501 477.429,-548.029 514.599,-517.198 602,-501 644.72,-493.083 652.757,-467.468 690.676,-463.515"/>
<polygon fill="black" stroke="black" points="691.187,-466.994 701,-463 690.838,-460.002 691.187,-466.994"/>
<text text-anchor="middle" x="502" y="-528.8" font-family="Times New Roman,serif" font-size="14.00">Inst[15&#45;11]</text>
</g>
<!-- Data Memory&#45;&gt;Memory to Register MUX -->
<g id="edge30" class="edge"><title>Data Memory:rdata&#45;&gt;Memory to Register MUX:1</title>
<path fill="none" stroke="black" d="M1382,-406C1404.07,-406 1406.02,-427.755 1422.11,-434.213"/>
<polygon fill="black" stroke="black" points="1421.54,-437.666 1432,-436 1422.78,-430.777 1421.54,-437.666"/>
</g>
<!-- Register Destination MUX&#45;&gt;Registers -->
<g id="edge10" class="edge"><title>Register Destination MUX:out&#45;&gt;Registers:wreg</title>
<path fill="none" stroke="black" d="M773,-440C817.538,-440 822.594,-467.421 854,-499 860.185,-505.219 860.214,-513.73 863.035,-519.044"/>
<polygon fill="black" stroke="black" points="861.555,-522.225 872,-524 864.942,-516.099 861.555,-522.225"/>
</g>
<!-- ALU Source MUX&#45;&gt;Zero Override MUX -->
<g id="edge11" class="edge"><title>ALU Source MUX:out&#45;&gt;Zero Override MUX:0</title>
<path fill="none" stroke="black" d="M1164,-643C1182.69,-643 1183.85,-656.544 1202,-661 1297.95,-684.557 1327.68,-671.006 1421.76,-670.052"/>
<polygon fill="black" stroke="black" points="1422.02,-673.551 1432,-670 1421.98,-666.551 1422.02,-673.551"/>
</g>
<!-- Branch MUX&#45;&gt;Jump MUX -->
<g id="edge8" class="edge"><title>Branch MUX:out&#45;&gt;Jump MUX:0</title>
<path fill="none" stroke="black" d="M1502,-74C1530.61,-74 1513.21,-122.234 1530.32,-134.293"/>
<polygon fill="black" stroke="black" points="1529.43,-137.677 1540,-137 1531.31,-130.936 1529.43,-137.677"/>
</g>
<!-- Jump MUX&#45;&gt;PC -->
<g id="edge9" class="edge"><title>Jump MUX:out&#45;&gt;PC:in</title>
<path fill="none" stroke="black" d="M1611,-160C1618.78,-160 1615.58,-189.577 1610,-195 1587.69,-216.682 1566.29,-211.637 1540,-195 1524.21,-185.007 1536.19,-169.156 1522,-157 1502.99,-140.717 1493.03,-141 1468,-141 736,-141 736,-141 736,-141 684.07,-141 670.667,-138.38 620,-127 611.772,-125.152 610.272,-122.64 602,-121 395.727,-80.0928 327.71,-159.642 130,-88 120.722,-84.638 121.372,-78.0907 112,-75 79.527,-64.2908 36.3342,-41.3539 27.5845,-63.9957"/>
<polygon fill="black" stroke="black" points="24.1075,-63.5756 26,-74 31.0213,-64.6706 24.1075,-63.5756"/>
</g>
<!-- Memory to Register MUX&#45;&gt;Registers -->
<g id="edge13" class="edge"><title>Memory to Register MUX:out&#45;&gt;Registers:wdata</title>
<path fill="none" stroke="black" d="M1503,-413C1510.78,-413 1507.58,-442.577 1502,-448 1479.69,-469.682 1457.29,-466.12 1432,-448 1411.78,-433.511 1424.51,-417.548 1414,-395 1406.76,-379.455 1408.94,-370.417 1394,-362 1319.65,-320.121 1286.33,-348.966 1202,-362 1049.96,-385.498 964.681,-343.706 872,-466.5 869.112,-470.326 866.447,-482.846 866.728,-491.698"/>
<polygon fill="black" stroke="black" points="863.645,-493.374 871,-501 870.007,-490.452 863.645,-493.374"/>
</g>
<!-- Zero Override MUX&#45;&gt;ALU -->
<g id="edge12" class="edge"><title>Zero Override MUX:out&#45;&gt;ALU:y</title>
<path fill="none" stroke="black" d="M1503,-693C1510.78,-693 1507.58,-722.577 1502,-728 1479.69,-749.682 1456.2,-747.554 1432,-728 1416.35,-715.357 1408.79,-564.629 1394,-551 1327.44,-489.68 1163.75,-501.664 1123.87,-513.936"/>
<polygon fill="black" stroke="black" points="1121.95,-511.002 1115,-519 1125.42,-517.08 1121.95,-511.002"/>
</g>
</g>
</svg>
