<?xml version="1.0" encoding="UTF-8" standalone="no"?>
<!DOCTYPE svg PUBLIC "-//W3C//DTD SVG 1.1//EN"
 "http://www.w3.org/Graphics/SVG/1.1/DTD/svg11.dtd">
<!-- Generated by graphviz version 2.34.0 (20130907.0111)
 -->
<!-- Title: graphname Pages: 1 -->
<svg width="1253pt" height="741pt"
 viewBox="0.00 0.00 1253.00 741.00" xmlns="http://www.w3.org/2000/svg" xmlns:xlink="http://www.w3.org/1999/xlink">
<g id="graph0" class="graph" transform="scale(1 1) rotate(0) translate(4 737)">
<title>graphname</title>
<polygon fill="white" stroke="white" points="-4,4 -4,-737 1249,-737 1249,4 -4,4"/>
<!-- PC -->
<g id="node1" class="node"><title>PC</title>
<polygon fill="none" stroke="black" points="0,-383 0,-491 60,-491 60,-383 0,-383"/>
<text text-anchor="middle" x="30" y="-469.3" font-family="Times New Roman,serif" font-size="14.00">PC</text>
<polyline fill="none" stroke="black" points="0,-455 60,-455 "/>
<text text-anchor="middle" x="30" y="-433.3" font-family="Times New Roman,serif" font-size="14.00">PC_in</text>
<polyline fill="none" stroke="black" points="0,-419 60,-419 "/>
<text text-anchor="middle" x="30" y="-397.3" font-family="Times New Roman,serif" font-size="14.00">PC_out</text>
</g>
<!-- Add1 -->
<g id="node2" class="node"><title>Add1</title>
<polygon fill="none" stroke="black" points="311,-15.5 311,-84.5 365,-84.5 365,-15.5 311,-15.5"/>
<text text-anchor="middle" x="338" y="-69.3" font-family="Times New Roman,serif" font-size="14.00">in</text>
<polyline fill="none" stroke="black" points="311,-61.5 365,-61.5 "/>
<text text-anchor="middle" x="338" y="-46.3" font-family="Times New Roman,serif" font-size="14.00">in</text>
<polyline fill="none" stroke="black" points="311,-38.5 365,-38.5 "/>
<text text-anchor="middle" x="338" y="-23.3" font-family="Times New Roman,serif" font-size="14.00">+</text>
<text text-anchor="middle" x="295" y="-3.8" font-family="Times New Roman,serif" font-size="14.00">adder</text>
</g>
<!-- PC&#45;&gt;Add1 -->
<g id="edge2" class="edge"><title>PC:out&#45;&gt;Add1:in1</title>
<path fill="none" stroke="black" d="M30,-382C30,-352.452 51.6618,-271.393 78,-258"/>
<path fill="none" stroke="black" d="M80,-258C193.852,-200.104 179.675,-79.5741 299.929,-73.2583"/>
<polygon fill="black" stroke="black" points="300.093,-76.7554 310,-73 299.914,-69.7577 300.093,-76.7554"/>
</g>
<!-- Instruction Memory -->
<g id="node11" class="node"><title>Instruction Memory</title>
<polygon fill="none" stroke="black" points="98,-286.5 98,-355.5 226,-355.5 226,-286.5 98,-286.5"/>
<text text-anchor="middle" x="162" y="-340.3" font-family="Times New Roman,serif" font-size="14.00">Instruction Memory</text>
<polyline fill="none" stroke="black" points="98,-332.5 226,-332.5 "/>
<text text-anchor="middle" x="162" y="-317.3" font-family="Times New Roman,serif" font-size="14.00">read address</text>
<polyline fill="none" stroke="black" points="98,-309.5 226,-309.5 "/>
<text text-anchor="middle" x="162" y="-294.3" font-family="Times New Roman,serif" font-size="14.00">Instruction [31&#45;0]</text>
</g>
<!-- PC&#45;&gt;Instruction Memory -->
<g id="edge1" class="edge"><title>PC:out&#45;&gt;Instruction Memory:read address</title>
<path fill="none" stroke="black" d="M80,-258C101.816,-246.906 79.1062,-298.961 88.5922,-315.854"/>
<polygon fill="black" stroke="black" points="87.2365,-319.108 97.6618,-320.997 90.6894,-313.019 87.2365,-319.108"/>
</g>
<!-- Add2 -->
<g id="node4" class="node"><title>Add2</title>
<polygon fill="none" stroke="black" points="508,-55.5 508,-124.5 562,-124.5 562,-55.5 508,-55.5"/>
<text text-anchor="middle" x="535" y="-109.3" font-family="Times New Roman,serif" font-size="14.00">in</text>
<polyline fill="none" stroke="black" points="508,-101.5 562,-101.5 "/>
<text text-anchor="middle" x="535" y="-86.3" font-family="Times New Roman,serif" font-size="14.00">in</text>
<polyline fill="none" stroke="black" points="508,-78.5 562,-78.5 "/>
<text text-anchor="middle" x="535" y="-63.3" font-family="Times New Roman,serif" font-size="14.00">+</text>
<text text-anchor="middle" x="492" y="-43.8" font-family="Times New Roman,serif" font-size="14.00">adder</text>
</g>
<!-- Add1&#45;&gt;Add2 -->
<g id="edge5" class="edge"><title>Add1:out&#45;&gt;Add2:in1</title>
<path fill="none" stroke="black" d="M450,-27C470.771,-28.5272 468.327,-45.7511 480,-63 491.676,-80.2534 485.276,-103.065 496.853,-110.525"/>
<polygon fill="black" stroke="black" points="496.154,-113.958 506.706,-112.999 497.859,-107.169 496.154,-113.958"/>
</g>
<!-- Concat -->
<g id="node5" class="node"><title>Concat</title>
<ellipse fill="none" stroke="black" cx="535" cy="-294" rx="37.0935" ry="37.0935"/>
<text text-anchor="middle" x="535" y="-290.3" font-family="Times New Roman,serif" font-size="14.00">Concat</text>
</g>
<!-- Add1&#45;&gt;Concat -->
<g id="edge4" class="edge"><title>Add1:out&#45;&gt;Concat</title>
<path fill="none" stroke="black" d="M366,-27C372.62,-27 465.11,-179.368 509.956,-253.899"/>
<polygon fill="black" stroke="black" points="507.027,-255.82 515.179,-262.587 513.026,-252.213 507.027,-255.82"/>
<text text-anchor="middle" x="449" y="-204.8" font-family="Times New Roman,serif" font-size="14.00">PC[31&#45;26]</text>
</g>
<!-- Branch MUX -->
<g id="node15" class="node"><title>Branch MUX</title>
<path fill="none" stroke="black" d="M1084,-24C1084,-24 1116,-24 1116,-24 1122,-24 1128,-30 1128,-36 1128,-36 1128,-104 1128,-104 1128,-110 1122,-116 1116,-116 1116,-116 1084,-116 1084,-116 1078,-116 1072,-110 1072,-104 1072,-104 1072,-36 1072,-36 1072,-30 1078,-24 1084,-24"/>
<text text-anchor="middle" x="1100" y="-100.8" font-family="Times New Roman,serif" font-size="14.00">1</text>
<polyline fill="none" stroke="black" points="1072,-93 1128,-93 "/>
<text text-anchor="middle" x="1100" y="-77.8" font-family="Times New Roman,serif" font-size="14.00">control</text>
<polyline fill="none" stroke="black" points="1072,-70 1128,-70 "/>
<text text-anchor="middle" x="1100" y="-54.8" font-family="Times New Roman,serif" font-size="14.00">out</text>
<polyline fill="none" stroke="black" points="1072,-47 1128,-47 "/>
<text text-anchor="middle" x="1100" y="-31.8" font-family="Times New Roman,serif" font-size="14.00">0</text>
<text text-anchor="middle" x="1033" y="-12.3" font-family="Times New Roman,serif" font-size="14.00">MUX_branch</text>
</g>
<!-- Add1&#45;&gt;Branch MUX -->
<g id="edge6" class="edge"><title>Add1:out&#45;&gt;Branch MUX:0</title>
<path fill="none" stroke="black" d="M366,-27C402.444,-27 411.654,-24.3276 448,-27"/>
<path fill="none" stroke="black" d="M450,-27C525.352,-32.5403 544.444,-27 620,-27 620,-27 620,-27 970,-27 1011.92,-27 1024.59,-33.7988 1061.94,-34.8611"/>
<polygon fill="black" stroke="black" points="1061.95,-38.3616 1072,-35 1062.05,-31.3622 1061.95,-38.3616"/>
</g>
<!-- constant_1 -->
<g id="node3" class="node"><title>constant_1</title>
<polygon fill="none" stroke="black" points="189,-68 135,-68 135,-32 189,-32 189,-68"/>
<text text-anchor="middle" x="162" y="-46.3" font-family="Times New Roman,serif" font-size="14.00">1</text>
</g>
<!-- constant_1&#45;&gt;Add1 -->
<g id="edge3" class="edge"><title>constant_1&#45;&gt;Add1:in2</title>
<path fill="none" stroke="black" d="M189.023,-50C216.108,-50 260.064,-50 299.958,-50"/>
<polygon fill="black" stroke="black" points="300,-53.5001 310,-50 300,-46.5001 300,-53.5001"/>
</g>
<!-- Add2&#45;&gt;Branch MUX -->
<g id="edge7" class="edge"><title>Add2:out&#45;&gt;Branch MUX:1</title>
<path fill="none" stroke="black" d="M563,-67C634.898,-67 648.102,-106 720,-106 720,-106 720,-106 970,-106 1011.79,-106 1024.69,-105.15 1061.96,-105.017"/>
<polygon fill="black" stroke="black" points="1062.01,-108.517 1072,-105 1061.99,-101.517 1062.01,-108.517"/>
</g>
<!-- Jump MUX -->
<g id="node16" class="node"><title>Jump MUX</title>
<path fill="none" stroke="black" d="M1178,-102C1178,-102 1210,-102 1210,-102 1216,-102 1222,-108 1222,-114 1222,-114 1222,-182 1222,-182 1222,-188 1216,-194 1210,-194 1210,-194 1178,-194 1178,-194 1172,-194 1166,-188 1166,-182 1166,-182 1166,-114 1166,-114 1166,-108 1172,-102 1178,-102"/>
<text text-anchor="middle" x="1194" y="-178.8" font-family="Times New Roman,serif" font-size="14.00">1</text>
<polyline fill="none" stroke="black" points="1166,-171 1222,-171 "/>
<text text-anchor="middle" x="1194" y="-155.8" font-family="Times New Roman,serif" font-size="14.00">control</text>
<polyline fill="none" stroke="black" points="1166,-148 1222,-148 "/>
<text text-anchor="middle" x="1194" y="-132.8" font-family="Times New Roman,serif" font-size="14.00">out</text>
<polyline fill="none" stroke="black" points="1166,-125 1222,-125 "/>
<text text-anchor="middle" x="1194" y="-109.8" font-family="Times New Roman,serif" font-size="14.00">0</text>
<text text-anchor="middle" x="1191.5" y="-90.3" font-family="Times New Roman,serif" font-size="14.00">MUX_jmp</text>
</g>
<!-- Concat&#45;&gt;Jump MUX -->
<g id="edge40" class="edge"><title>Concat&#45;&gt;Jump MUX:1</title>
<path fill="none" stroke="black" d="M570.796,-283.457C664.046,-256.156 927.945,-185.122 1155.86,-183.046"/>
<polygon fill="black" stroke="black" points="1156.02,-186.546 1166,-183 1155.98,-179.546 1156.02,-186.546"/>
</g>
<!-- Sign Extend -->
<g id="node6" class="node"><title>Sign Extend</title>
<ellipse fill="none" stroke="black" cx="338" cy="-143" rx="40.1111" ry="40.1111"/>
<text text-anchor="middle" x="338" y="-146.8" font-family="Times New Roman,serif" font-size="14.00">sign</text>
<text text-anchor="middle" x="338" y="-131.8" font-family="Times New Roman,serif" font-size="14.00"> extend</text>
</g>
<!-- Sign Extend&#45;&gt;Add2 -->
<g id="edge22" class="edge"><title>Sign Extend&#45;&gt;Add2:in2</title>
<path fill="none" stroke="black" d="M369.572,-117.938C387.019,-104.252 407.459,-89.4058 418,-86 444.221,-77.5281 452.519,-83.9754 480,-86 482.836,-86.2089 485.159,-86.5396 487.21,-86.9235"/>
<polygon fill="black" stroke="black" points="507,-90 507,-90 507,-90 502.059,-89.2319 507.691,-85.5534 497.119,-88.4639 507,-90"/>
<polygon fill="black" stroke="black" points="497.119,-88.4639 486.546,-91.3743 492.178,-87.6958 487.237,-86.9277 487.237,-86.9277 487.237,-86.9277 497.119,-88.4639"/>
<text text-anchor="middle" x="449" y="-89.8" font-family="Times New Roman,serif" font-size="14.00">32</text>
</g>
<!-- Control Unit -->
<g id="node7" class="node"><title>Control Unit</title>
<polygon fill="none" stroke="black" points="276.5,-202 276.5,-386 399.5,-386 399.5,-202 276.5,-202"/>
<text text-anchor="middle" x="338" y="-370.8" font-family="Times New Roman,serif" font-size="14.00">Control Unit</text>
<polyline fill="none" stroke="black" points="276.5,-363 399.5,-363 "/>
<text text-anchor="middle" x="338" y="-347.8" font-family="Times New Roman,serif" font-size="14.00">ALU source</text>
<polyline fill="none" stroke="black" points="276.5,-340 399.5,-340 "/>
<text text-anchor="middle" x="338" y="-324.8" font-family="Times New Roman,serif" font-size="14.00">register write</text>
<polyline fill="none" stroke="black" points="276.5,-317 399.5,-317 "/>
<text text-anchor="middle" x="338" y="-301.8" font-family="Times New Roman,serif" font-size="14.00">register destination</text>
<polyline fill="none" stroke="black" points="276.5,-294 399.5,-294 "/>
<text text-anchor="middle" x="338" y="-278.8" font-family="Times New Roman,serif" font-size="14.00">Instruction</text>
<polyline fill="none" stroke="black" points="276.5,-271 399.5,-271 "/>
<text text-anchor="middle" x="338" y="-255.8" font-family="Times New Roman,serif" font-size="14.00">Memory to register</text>
<polyline fill="none" stroke="black" points="276.5,-248 399.5,-248 "/>
<text text-anchor="middle" x="338" y="-232.8" font-family="Times New Roman,serif" font-size="14.00">Memory write</text>
<polyline fill="none" stroke="black" points="276.5,-225 399.5,-225 "/>
<text text-anchor="middle" x="338" y="-209.8" font-family="Times New Roman,serif" font-size="14.00">jump</text>
</g>
<!-- Registers -->
<g id="node10" class="node"><title>Registers</title>
<polygon fill="none" stroke="black" points="670.5,-397 670.5,-581 771.5,-581 771.5,-397 670.5,-397"/>
<text text-anchor="middle" x="721" y="-565.8" font-family="Times New Roman,serif" font-size="14.00">Registers</text>
<polyline fill="none" stroke="black" points="670.5,-558 771.5,-558 "/>
<text text-anchor="middle" x="721" y="-542.8" font-family="Times New Roman,serif" font-size="14.00">Read register 1</text>
<polyline fill="none" stroke="black" points="670.5,-535 771.5,-535 "/>
<text text-anchor="middle" x="721" y="-519.8" font-family="Times New Roman,serif" font-size="14.00">Read register 2</text>
<polyline fill="none" stroke="black" points="670.5,-512 771.5,-512 "/>
<text text-anchor="middle" x="721" y="-496.8" font-family="Times New Roman,serif" font-size="14.00">Write register</text>
<polyline fill="none" stroke="black" points="670.5,-489 771.5,-489 "/>
<text text-anchor="middle" x="721" y="-473.8" font-family="Times New Roman,serif" font-size="14.00">Write data</text>
<polyline fill="none" stroke="black" points="670.5,-466 771.5,-466 "/>
<text text-anchor="middle" x="721" y="-450.8" font-family="Times New Roman,serif" font-size="14.00">register write</text>
<polyline fill="none" stroke="black" points="670.5,-443 771.5,-443 "/>
<text text-anchor="middle" x="721" y="-427.8" font-family="Times New Roman,serif" font-size="14.00">Read data 1</text>
<polyline fill="none" stroke="black" points="670.5,-420 771.5,-420 "/>
<text text-anchor="middle" x="721" y="-404.8" font-family="Times New Roman,serif" font-size="14.00">Read data 2</text>
</g>
<!-- Control Unit&#45;&gt;Registers -->
<g id="edge35" class="edge"><title>Control Unit:regwrite&#45;&gt;Registers:regwrite</title>
<path fill="none" stroke="black" d="M400,-329C462.89,-329 590.599,-442.091 659.819,-453.135"/>
<polygon fill="black" stroke="black" points="659.74,-456.641 670,-454 660.332,-449.666 659.74,-456.641"/>
</g>
<!-- Data Memory -->
<g id="node12" class="node"><title>Data Memory</title>
<polygon fill="none" stroke="black" points="920,-333.5 920,-448.5 1018,-448.5 1018,-333.5 920,-333.5"/>
<text text-anchor="middle" x="969" y="-433.3" font-family="Times New Roman,serif" font-size="14.00">Data Memory</text>
<polyline fill="none" stroke="black" points="920,-425.5 1018,-425.5 "/>
<text text-anchor="middle" x="969" y="-410.3" font-family="Times New Roman,serif" font-size="14.00">address</text>
<polyline fill="none" stroke="black" points="920,-402.5 1018,-402.5 "/>
<text text-anchor="middle" x="969" y="-387.3" font-family="Times New Roman,serif" font-size="14.00">write data</text>
<polyline fill="none" stroke="black" points="920,-379.5 1018,-379.5 "/>
<text text-anchor="middle" x="969" y="-364.3" font-family="Times New Roman,serif" font-size="14.00">Memory Write</text>
<polyline fill="none" stroke="black" points="920,-356.5 1018,-356.5 "/>
<text text-anchor="middle" x="969" y="-341.3" font-family="Times New Roman,serif" font-size="14.00">read data</text>
</g>
<!-- Control Unit&#45;&gt;Data Memory -->
<g id="edge38" class="edge"><title>Control Unit:memw&#45;&gt;Data Memory:memwrite</title>
<path fill="none" stroke="black" d="M400,-236C608.3,-236 691.196,-172.719 866,-286 899.144,-307.479 879.913,-357.787 908.907,-366.653"/>
<polygon fill="black" stroke="black" points="908.625,-370.147 919,-368 909.551,-363.208 908.625,-370.147"/>
</g>
<!-- Register Destination MUX -->
<g id="node13" class="node"><title>Register Destination MUX</title>
<path fill="none" stroke="black" d="M519,-426C519,-426 551,-426 551,-426 557,-426 563,-432 563,-438 563,-438 563,-506 563,-506 563,-512 557,-518 551,-518 551,-518 519,-518 519,-518 513,-518 507,-512 507,-506 507,-506 507,-438 507,-438 507,-432 513,-426 519,-426"/>
<text text-anchor="middle" x="535" y="-502.8" font-family="Times New Roman,serif" font-size="14.00">1</text>
<polyline fill="none" stroke="black" points="507,-495 563,-495 "/>
<text text-anchor="middle" x="535" y="-479.8" font-family="Times New Roman,serif" font-size="14.00">control</text>
<polyline fill="none" stroke="black" points="507,-472 563,-472 "/>
<text text-anchor="middle" x="535" y="-456.8" font-family="Times New Roman,serif" font-size="14.00">out</text>
<polyline fill="none" stroke="black" points="507,-449 563,-449 "/>
<text text-anchor="middle" x="535" y="-433.8" font-family="Times New Roman,serif" font-size="14.00">0</text>
<text text-anchor="middle" x="463" y="-414.3" font-family="Times New Roman,serif" font-size="14.00">MUX_reg_dest</text>
</g>
<!-- Control Unit&#45;&gt;Register Destination MUX -->
<g id="edge36" class="edge"><title>Control Unit:regdest&#45;&gt;Register Destination MUX:control</title>
<path fill="none" stroke="black" d="M400,-306C430.834,-306 404.135,-345.46 418,-373 421,-378.958 476.489,-454.571 498.12,-477.471"/>
<polygon fill="black" stroke="black" points="496.067,-480.315 506,-484 500.532,-474.925 496.067,-480.315"/>
</g>
<!-- ALU Source MUX -->
<g id="node14" class="node"><title>ALU Source MUX</title>
<path fill="none" stroke="black" d="M822,-296C822,-296 854,-296 854,-296 860,-296 866,-302 866,-308 866,-308 866,-376 866,-376 866,-382 860,-388 854,-388 854,-388 822,-388 822,-388 816,-388 810,-382 810,-376 810,-376 810,-308 810,-308 810,-302 816,-296 822,-296"/>
<text text-anchor="middle" x="838" y="-372.8" font-family="Times New Roman,serif" font-size="14.00">1</text>
<polyline fill="none" stroke="black" points="810,-365 866,-365 "/>
<text text-anchor="middle" x="838" y="-349.8" font-family="Times New Roman,serif" font-size="14.00">control</text>
<polyline fill="none" stroke="black" points="810,-342 866,-342 "/>
<text text-anchor="middle" x="838" y="-326.8" font-family="Times New Roman,serif" font-size="14.00">out</text>
<polyline fill="none" stroke="black" points="810,-319 866,-319 "/>
<text text-anchor="middle" x="838" y="-303.8" font-family="Times New Roman,serif" font-size="14.00">0</text>
<text text-anchor="middle" x="770" y="-284.3" font-family="Times New Roman,serif" font-size="14.00">MUX_alu_src</text>
</g>
<!-- Control Unit&#45;&gt;ALU Source MUX -->
<g id="edge34" class="edge"><title>Control Unit:alusource&#45;&gt;ALU Source MUX:control</title>
<path fill="none" stroke="black" d="M400,-352C578.843,-352 626.038,-353.926 799.996,-353.998"/>
<polygon fill="black" stroke="black" points="799.999,-357.498 810,-354 800.001,-350.498 799.999,-357.498"/>
</g>
<!-- Control Unit&#45;&gt;Jump MUX -->
<g id="edge37" class="edge"><title>Control Unit:jump&#45;&gt;Jump MUX:control</title>
<path fill="none" stroke="black" d="M400,-213C465.253,-213 468.747,-153 534,-153 534,-153 534,-153 1101,-153 1126.31,-153 1134.8,-158.312 1155.77,-159.681"/>
<polygon fill="black" stroke="black" points="1155.9,-163.186 1166,-160 1156.11,-156.19 1155.9,-163.186"/>
</g>
<!-- Memory to Register MUX -->
<g id="node17" class="node"><title>Memory to Register MUX</title>
<path fill="none" stroke="black" d="M1084,-220C1084,-220 1116,-220 1116,-220 1122,-220 1128,-226 1128,-232 1128,-232 1128,-300 1128,-300 1128,-306 1122,-312 1116,-312 1116,-312 1084,-312 1084,-312 1078,-312 1072,-306 1072,-300 1072,-300 1072,-232 1072,-232 1072,-226 1078,-220 1084,-220"/>
<text text-anchor="middle" x="1100" y="-296.8" font-family="Times New Roman,serif" font-size="14.00">1</text>
<polyline fill="none" stroke="black" points="1072,-289 1128,-289 "/>
<text text-anchor="middle" x="1100" y="-273.8" font-family="Times New Roman,serif" font-size="14.00">control</text>
<polyline fill="none" stroke="black" points="1072,-266 1128,-266 "/>
<text text-anchor="middle" x="1100" y="-250.8" font-family="Times New Roman,serif" font-size="14.00">out</text>
<polyline fill="none" stroke="black" points="1072,-243 1128,-243 "/>
<text text-anchor="middle" x="1100" y="-227.8" font-family="Times New Roman,serif" font-size="14.00">0</text>
<text text-anchor="middle" x="1017" y="-208.3" font-family="Times New Roman,serif" font-size="14.00">MUX_mem_to_reg</text>
</g>
<!-- Control Unit&#45;&gt;Memory to Register MUX -->
<g id="edge39" class="edge"><title>Control Unit:memtoreg&#45;&gt;Memory to Register MUX:control</title>
<path fill="none" stroke="black" d="M400,-259C460.791,-259 609.407,-219.905 670,-215 715.186,-211.342 726.909,-210.317 772,-215 904.072,-228.718 934.255,-275.538 1061.83,-277.907"/>
<polygon fill="black" stroke="black" points="1061.97,-281.408 1072,-278 1062.03,-274.408 1061.97,-281.408"/>
</g>
<!-- Branch Controller -->
<g id="node8" class="node"><title>Branch Controller</title>
<polygon fill="none" stroke="black" points="904.5,-505.5 904.5,-666.5 1033.5,-666.5 1033.5,-505.5 904.5,-505.5"/>
<text text-anchor="middle" x="969" y="-651.3" font-family="Times New Roman,serif" font-size="14.00">Branch Controller</text>
<polyline fill="none" stroke="black" points="904.5,-643.5 1033.5,-643.5 "/>
<text text-anchor="middle" x="969" y="-628.3" font-family="Times New Roman,serif" font-size="14.00">opcode</text>
<polyline fill="none" stroke="black" points="904.5,-620.5 1033.5,-620.5 "/>
<text text-anchor="middle" x="969" y="-605.3" font-family="Times New Roman,serif" font-size="14.00">negative</text>
<polyline fill="none" stroke="black" points="904.5,-597.5 1033.5,-597.5 "/>
<text text-anchor="middle" x="969" y="-582.3" font-family="Times New Roman,serif" font-size="14.00">zero</text>
<polyline fill="none" stroke="black" points="904.5,-574.5 1033.5,-574.5 "/>
<text text-anchor="middle" x="969" y="-559.3" font-family="Times New Roman,serif" font-size="14.00">branch</text>
<polyline fill="none" stroke="black" points="904.5,-551.5 1033.5,-551.5 "/>
<text text-anchor="middle" x="969" y="-536.3" font-family="Times New Roman,serif" font-size="14.00">zero override enable</text>
<polyline fill="none" stroke="black" points="904.5,-528.5 1033.5,-528.5 "/>
<text text-anchor="middle" x="969" y="-513.3" font-family="Times New Roman,serif" font-size="14.00">value</text>
</g>
<!-- Branch Controller&#45;&gt;Branch MUX -->
<g id="edge33" class="edge"><title>Branch Controller:branch&#45;&gt;Branch MUX:control</title>
<path fill="none" stroke="black" d="M1034,-563C1137.56,-563 976.508,-114.319 1061.98,-83.6474"/>
<polygon fill="black" stroke="black" points="1062.7,-87.0756 1072,-82 1061.56,-80.1683 1062.7,-87.0756"/>
</g>
<!-- Zero Override MUX -->
<g id="node18" class="node"><title>Zero Override MUX</title>
<path fill="none" stroke="black" d="M1084,-612C1084,-612 1116,-612 1116,-612 1122,-612 1128,-618 1128,-624 1128,-624 1128,-692 1128,-692 1128,-698 1122,-704 1116,-704 1116,-704 1084,-704 1084,-704 1078,-704 1072,-698 1072,-692 1072,-692 1072,-624 1072,-624 1072,-618 1078,-612 1084,-612"/>
<text text-anchor="middle" x="1100" y="-688.8" font-family="Times New Roman,serif" font-size="14.00">1</text>
<polyline fill="none" stroke="black" points="1072,-681 1128,-681 "/>
<text text-anchor="middle" x="1100" y="-665.8" font-family="Times New Roman,serif" font-size="14.00">control</text>
<polyline fill="none" stroke="black" points="1072,-658 1128,-658 "/>
<text text-anchor="middle" x="1100" y="-642.8" font-family="Times New Roman,serif" font-size="14.00">out</text>
<polyline fill="none" stroke="black" points="1072,-635 1128,-635 "/>
<text text-anchor="middle" x="1100" y="-619.8" font-family="Times New Roman,serif" font-size="14.00">0</text>
<text text-anchor="middle" x="1186.5" y="-600.3" font-family="Times New Roman,serif" font-size="14.00">MUX_zero_override</text>
</g>
<!-- Branch Controller&#45;&gt;Zero Override MUX -->
<g id="edge31" class="edge"><title>Branch Controller:zerooverride&#45;&gt;Zero Override MUX:control</title>
<path fill="none" stroke="black" d="M1034,-540C1090.2,-540 1022.12,-653.308 1061.81,-668.356"/>
<polygon fill="black" stroke="black" points="1061.57,-671.863 1072,-670 1062.69,-664.952 1061.57,-671.863"/>
</g>
<!-- Branch Controller&#45;&gt;Zero Override MUX -->
<g id="edge32" class="edge"><title>Branch Controller:value&#45;&gt;Zero Override MUX:1</title>
<path fill="none" stroke="black" d="M1034,-517C1057.02,-517 1046.99,-596.534 1052,-619 1058.51,-648.226 1042.71,-683.241 1061.92,-691.293"/>
<polygon fill="black" stroke="black" points="1061.56,-694.782 1072,-693 1062.72,-687.88 1061.56,-694.782"/>
</g>
<!-- ALU -->
<g id="node9" class="node"><title>ALU</title>
<polygon fill="none" stroke="black" points="811,-484 811,-576 865,-576 865,-484 811,-484"/>
<text text-anchor="middle" x="838" y="-560.8" font-family="Times New Roman,serif" font-size="14.00">ALU</text>
<polyline fill="none" stroke="black" points="811,-553 865,-553 "/>
<text text-anchor="middle" x="838" y="-537.8" font-family="Times New Roman,serif" font-size="14.00">X</text>
<polyline fill="none" stroke="black" points="811,-530 865,-530 "/>
<text text-anchor="middle" x="838" y="-514.8" font-family="Times New Roman,serif" font-size="14.00">Y</text>
<polyline fill="none" stroke="black" points="811,-507 865,-507 "/>
<text text-anchor="middle" x="838" y="-491.8" font-family="Times New Roman,serif" font-size="14.00">R</text>
</g>
<!-- ALU&#45;&gt;Branch Controller -->
<g id="edge28" class="edge"><title>ALU:r&#45;&gt;Branch Controller:zero</title>
<path fill="none" stroke="black" d="M886,-477C927.645,-460.504 867.423,-564.821 893.816,-583.25"/>
<polygon fill="black" stroke="black" points="893.142,-586.695 903.714,-585.999 895.015,-579.95 893.142,-586.695"/>
</g>
<!-- ALU&#45;&gt;Data Memory -->
<g id="edge26" class="edge"><title>ALU:r&#45;&gt;Data Memory:address</title>
<path fill="none" stroke="black" d="M886,-477C911.156,-467.035 894.263,-427.966 908.705,-416.922"/>
<polygon fill="black" stroke="black" points="910.026,-420.182 918.632,-414.002 908.051,-413.466 910.026,-420.182"/>
<path fill="none" stroke="black" d="M866,-495C877.314,-495 873.481,-481.167 884,-477"/>
</g>
<!-- ALU&#45;&gt;Memory to Register MUX -->
<g id="edge27" class="edge"><title>ALU:r&#45;&gt;Memory to Register MUX:0</title>
<path fill="none" stroke="black" d="M886,-477C947.657,-452.577 986.22,-503.99 1034,-458 1038.02,-454.13 1059.1,-284.067 1068.65,-240.887"/>
<polygon fill="black" stroke="black" points="1072.05,-241.75 1071.69,-231.161 1065.37,-239.665 1072.05,-241.75"/>
</g>
<!-- Registers&#45;&gt;ALU -->
<g id="edge23" class="edge"><title>Registers:readdata1&#45;&gt;ALU:x</title>
<path fill="none" stroke="black" d="M772,-431C794.609,-431 786.976,-514.474 801.552,-536.646"/>
<polygon fill="black" stroke="black" points="799.68,-539.604 810,-542 803.427,-533.691 799.68,-539.604"/>
</g>
<!-- Registers&#45;&gt;Data Memory -->
<g id="edge25" class="edge"><title>Registers:readdata2&#45;&gt;Data Memory:wdata</title>
<path fill="none" stroke="black" d="M772,-408C775.484,-408 875.731,-395.785 908.697,-392.063"/>
<polygon fill="black" stroke="black" points="909.412,-395.508 919,-391 908.693,-388.545 909.412,-395.508"/>
</g>
<!-- Registers&#45;&gt;ALU Source MUX -->
<g id="edge24" class="edge"><title>Registers:readdata2&#45;&gt;ALU Source MUX:0</title>
<path fill="none" stroke="black" d="M772,-408C815.839,-408 771.212,-323.613 799.847,-309.11"/>
<polygon fill="black" stroke="black" points="800.921,-312.461 810,-307 799.497,-305.607 800.921,-312.461"/>
</g>
<!-- Instruction Memory&#45;&gt;Concat -->
<g id="edge18" class="edge"><title>Instruction Memory:inst&#45;&gt;Concat</title>
<path fill="none" stroke="black" d="M252,-474C269.706,-482.408 260.527,-449.033 276,-437 321.932,-401.28 348.557,-422.191 400,-395 452.988,-366.993 507.353,-318.77 526.659,-300.913"/>
<polygon fill="black" stroke="black" points="529.069,-303.451 533.95,-294.048 524.27,-298.355 529.069,-303.451"/>
<text text-anchor="middle" x="338" y="-440.8" font-family="Times New Roman,serif" font-size="14.00">Inst[25&#45;0]</text>
</g>
<!-- Instruction Memory&#45;&gt;Sign Extend -->
<g id="edge20" class="edge"><title>Instruction Memory:inst&#45;&gt;Sign Extend</title>
<path fill="none" stroke="black" d="M226,-298C278.089,-298 248.433,-236.197 276,-192 279.308,-186.696 283.398,-181.716 287.881,-177.115"/>
<polygon fill="black" stroke="black" points="303.07,-163.772 303.07,-163.772 303.07,-163.772 299.314,-167.072 300.1,-160.392 295.557,-170.372 303.07,-163.772"/>
<polygon fill="black" stroke="black" points="295.557,-170.372 291.014,-180.353 291.8,-173.672 288.044,-176.972 288.044,-176.972 288.044,-176.972 295.557,-170.372"/>
<text text-anchor="middle" x="251" y="-297.8" font-family="Times New Roman,serif" font-size="14.00">16</text>
</g>
<!-- Instruction Memory&#45;&gt;Control Unit -->
<g id="edge19" class="edge"><title>Instruction Memory:inst&#45;&gt;Control Unit:inst</title>
<path fill="none" stroke="black" d="M252,-474C286.662,-490.459 244.331,-324.645 265.375,-288.765"/>
<polygon fill="black" stroke="black" points="267.94,-291.197 273.594,-282.238 263.587,-285.715 267.94,-291.197"/>
<path fill="none" stroke="black" d="M226,-298C265.473,-298 214.343,-457.069 250,-474"/>
</g>
<!-- Instruction Memory&#45;&gt;Branch Controller -->
<g id="edge21" class="edge"><title>Instruction Memory:inst&#45;&gt;Branch Controller:opcode</title>
<path fill="none" stroke="black" d="M339,-585C394.48,-611.085 576.143,-623 620,-623 620,-623 620,-623 839,-623 864.306,-623 872.676,-629.776 893.501,-631.569"/>
<polygon fill="black" stroke="black" points="893.52,-635.073 903.659,-632 893.816,-628.079 893.52,-635.073"/>
<text text-anchor="middle" x="621" y="-626.8" font-family="Times New Roman,serif" font-size="14.00">Inst[31&#45;26]</text>
</g>
<!-- Instruction Memory&#45;&gt;Registers -->
<g id="edge14" class="edge"><title>Instruction Memory:inst&#45;&gt;Registers:readreg2</title>
<path fill="none" stroke="black" d="M339,-585C374.062,-601.549 380.597,-558.21 418,-548 469.094,-534.053 597.497,-525.094 659.29,-524.094"/>
<polygon fill="black" stroke="black" points="659.701,-527.59 669.669,-524 659.638,-520.59 659.701,-527.59"/>
<path fill="none" stroke="black" d="M252,-474C279.233,-487.462 257.942,-513.571 276,-538 296.344,-565.522 306.071,-570.345 337,-585"/>
<text text-anchor="middle" x="449" y="-551.8" font-family="Times New Roman,serif" font-size="14.00">Inst[25&#45;21]</text>
</g>
<!-- Instruction Memory&#45;&gt;Registers -->
<g id="edge15" class="edge"><title>Instruction Memory:inst&#45;&gt;Registers:readreg1</title>
<path fill="none" stroke="black" d="M339,-585C370.175,-599.772 598.546,-554.012 659.468,-547.71"/>
<polygon fill="black" stroke="black" points="659.826,-551.194 669.556,-547.002 659.335,-544.211 659.826,-551.194"/>
<text text-anchor="middle" x="449" y="-586.8" font-family="Times New Roman,serif" font-size="14.00">Inst[20&#45;16]</text>
</g>
<!-- Instruction Memory&#45;&gt;Register Destination MUX -->
<g id="edge16" class="edge"><title>Instruction Memory:inst&#45;&gt;Register Destination MUX:0</title>
<path fill="none" stroke="black" d="M252,-474C292.551,-494.045 392.653,-459.028 460.8,-443.675"/>
<polygon fill="black" stroke="black" points="461.573,-447.089 470.612,-441.561 460.099,-440.246 461.573,-447.089"/>
<text text-anchor="middle" x="338" y="-483.8" font-family="Times New Roman,serif" font-size="14.00">Inst[20&#45;16]</text>
</g>
<!-- Instruction Memory&#45;&gt;Register Destination MUX -->
<g id="edge17" class="edge"><title>Instruction Memory:inst&#45;&gt;Register Destination MUX:1</title>
<path fill="none" stroke="black" d="M252,-474C265.761,-480.919 261.938,-492.715 276,-499 366.103,-539.268 401.231,-509.277 495.468,-507.12"/>
<polygon fill="black" stroke="black" points="495.742,-510.617 505.701,-507 495.66,-503.618 495.742,-510.617"/>
<text text-anchor="middle" x="338" y="-522.8" font-family="Times New Roman,serif" font-size="14.00">Inst[15&#45;11]</text>
</g>
<!-- Data Memory&#45;&gt;Memory to Register MUX -->
<g id="edge30" class="edge"><title>Data Memory:rdata&#45;&gt;Memory to Register MUX:1</title>
<path fill="none" stroke="black" d="M1019,-345C1045.67,-345 1042.86,-311.613 1061.93,-303.005"/>
<polygon fill="black" stroke="black" points="1062.88,-306.385 1072,-301 1061.51,-299.52 1062.88,-306.385"/>
</g>
<!-- Register Destination MUX&#45;&gt;Registers -->
<g id="edge10" class="edge"><title>Register Destination MUX:out&#45;&gt;Registers:wreg</title>
<path fill="none" stroke="black" d="M564,-460C610.961,-460 618.563,-495.437 659.989,-500.42"/>
<polygon fill="black" stroke="black" points="659.814,-503.916 670,-501 660.219,-496.928 659.814,-503.916"/>
</g>
<!-- ALU Source MUX&#45;&gt;Zero Override MUX -->
<g id="edge11" class="edge"><title>ALU Source MUX:out&#45;&gt;Zero Override MUX:0</title>
<path fill="none" stroke="black" d="M866,-330C883.098,-330 886.954,-325.337 904,-324 961.601,-319.481 988.798,-288.013 1034,-324 1082.7,-362.771 1098.47,-528.235 1099.89,-600.618"/>
<polygon fill="black" stroke="black" points="1096.4,-601.037 1100,-611 1103.4,-600.964 1096.4,-601.037"/>
</g>
<!-- Branch MUX&#45;&gt;Jump MUX -->
<g id="edge8" class="edge"><title>Branch MUX:out&#45;&gt;Jump MUX:0</title>
<path fill="none" stroke="black" d="M1128,-58C1153.53,-58 1141.3,-98.6189 1156.21,-110.043"/>
<polygon fill="black" stroke="black" points="1155.42,-113.458 1166,-113 1157.44,-106.757 1155.42,-113.458"/>
</g>
<!-- Jump MUX&#45;&gt;PC -->
<g id="edge9" class="edge"><title>Jump MUX:out&#45;&gt;PC:in</title>
<path fill="none" stroke="black" d="M1166,-136C1133.88,-136 1143.39,-684.8 1128,-713 1120.85,-726.109 1115.93,-733 1101,-733 161,-733 161,-733 161,-733 25.5262,-733 190.218,-451.84 69.9873,-437.563"/>
<polygon fill="black" stroke="black" points="70.1811,-434.068 60,-437 69.7872,-441.057 70.1811,-434.068"/>
</g>
<!-- Memory to Register MUX&#45;&gt;Registers -->
<g id="edge13" class="edge"><title>Memory to Register MUX:out&#45;&gt;Registers:wdata</title>
<path fill="none" stroke="black" d="M1072,-254C991.111,-254 963.58,-269.289 904,-324 877.059,-348.739 888.794,-368.394 866,-397 850.842,-416.022 810.224,-464.211 782.091,-474.885"/>
<polygon fill="black" stroke="black" points="781.069,-471.523 772,-477 782.505,-478.374 781.069,-471.523"/>
</g>
<!-- Zero Override MUX&#45;&gt;ALU -->
<g id="edge12" class="edge"><title>Zero Override MUX:out&#45;&gt;ALU:y</title>
<path fill="none" stroke="black" d="M1072,-646C1050.48,-646 1054.33,-668.943 1034,-676 979.418,-694.949 949.381,-711.761 904,-676 850.263,-633.655 929.043,-529.759 876.11,-518.919"/>
<polygon fill="black" stroke="black" points="876.276,-515.419 866,-518 875.642,-522.391 876.276,-515.419"/>
</g>
</g>
</svg>
